<svg width="14" height="13" viewBox="0 0 14 13" fill="none" xmlns="http://www.w3.org/2000/svg">
<path d="M5.77884 0.679911C6.08516 -0.226578 7.36727 -0.226576 7.67358 0.679914L8.59792 3.41532C8.73523 3.82167 9.11638 4.09519 9.5453 4.09519H12.4505C13.4287 4.09519 13.8251 5.35476 13.0232 5.91496L10.7412 7.50918C10.3769 7.76369 10.2242 8.22808 10.3665 8.64909L11.2539 11.2753C11.5629 12.1897 10.5252 12.968 9.73387 12.4152L7.2989 10.7141C6.95492 10.4738 6.4975 10.4738 6.15352 10.7141L3.71855 12.4152C2.92727 12.968 1.88948 12.1897 2.19849 11.2753L3.08592 8.64909C3.22819 8.22808 3.07555 7.76369 2.71124 7.50918L0.42921 5.91496C-0.372686 5.35476 0.0237074 4.09519 1.0019 4.09519H3.90713C4.33604 4.09519 4.71719 3.82166 4.8545 3.41532L5.77884 0.679911Z" fill="#00D25D"/>
</svg>
