<svg width="84" height="35" viewBox="0 0 84 35" fill="none" xmlns="http://www.w3.org/2000/svg">
<path d="M66.6094 35C57.3617 35 50.0117 27.0177 49.4895 26.4371L44.7289 21.649C44.3462 21.2641 44.3461 20.6423 44.7287 20.2572C45.1147 19.8688 45.7431 19.8688 46.1291 20.2572L50.8977 25.0558L50.9332 25.0971C51.0043 25.1741 58.1055 33.0216 66.6066 33.0216C75.1105 33.0216 82.0285 26.0629 82.0285 17.5027C82.0285 8.94536 75.1133 1.98388 66.6066 1.98388C61.3961 1.98388 56.921 4.67122 54.3388 6.6441C53.9033 6.97686 53.2792 6.91581 52.9328 6.49101C52.5891 6.06939 52.6489 5.44836 53.0803 5.11699C55.8766 2.96915 60.7938 0 66.6094 0C76.1988 0 84 7.85023 84 17.5C84 27.1498 76.1988 35 66.6094 35ZM33.0641 9.90566C32.993 9.82586 25.8918 1.98113 17.3906 1.98113C8.88672 1.98113 1.96875 8.94261 1.96875 17.5C1.96875 26.0574 8.88672 33.0189 17.3906 33.0189C22.6039 33.0189 27.0772 30.3335 29.6609 28.359C30.0964 28.0262 30.7207 28.0876 31.0666 28.5128C31.4093 28.934 31.3494 29.5537 30.9188 29.8846C28.1268 32.0304 23.209 35 17.3906 35C7.80117 35 0 27.147 0 17.5C0 7.85299 7.80117 0 17.3906 0C26.6383 0 33.991 7.98231 34.5105 8.56289L39.2689 13.3536C39.6514 13.7387 39.6513 14.3603 39.2687 14.7453C38.8826 15.1338 38.2541 15.1338 37.868 14.7453L33.0996 9.94693L33.0641 9.90566ZM35.193 25.7503C34.8064 26.1394 34.1768 26.1391 33.7905 25.7496C33.4081 25.3641 33.4084 24.7423 33.7911 24.3572L44.925 13.1533C45.9978 12.0737 45.2332 10.2358 43.7112 10.2358H42.9906C42.4435 10.2358 42 9.79236 42 9.24528C42 8.69821 42.4435 8.25472 42.9906 8.25472H46.5938C49.1308 8.25472 51.1875 10.3114 51.1875 12.8485V16.5156C51.1875 17.0593 50.7468 17.5 50.2031 17.5C49.6595 17.5 49.2188 17.0593 49.2188 16.5156V15.788C49.2188 14.2601 47.3693 13.4975 46.2924 14.5812L35.193 25.7503Z" fill="url(#paint0_linear_95_728)"/>
<defs>
<linearGradient id="paint0_linear_95_728" x1="43.78" y1="-53.5268" x2="-8.55442" y2="69.7834" gradientUnits="userSpaceOnUse">
<stop stop-color="#BFFF72"/>
<stop offset="0.690508" stop-color="#0149AF"/>
</linearGradient>
</defs>
</svg>
