<svg width="20" height="15" viewBox="0 0 20 15" fill="none" xmlns="http://www.w3.org/2000/svg">
<path d="M18.9999 9.14502L16.6768 6.7319L18.9999 4.72943V9.14502Z" fill="white" stroke="white" stroke-width="0.125"/>
<path d="M3.32594 6.7319L1 9.14783V4.72943L3.32594 6.7319Z" fill="white" stroke="white" stroke-width="0.125"/>
<path d="M19 11.3388V13.5606C19 14.0978 18.5641 14.5338 18.0269 14.5338H1.97312C1.4359 14.5338 1 14.0979 1 13.5606V11.3388L4.47903 7.72748L8.45312 11.1503C8.86656 11.5047 9.41496 11.7016 10 11.7016C10.585 11.7016 11.1362 11.5047 11.5497 11.1503L15.5209 7.72748L19 11.3388Z" fill="white" stroke="white" stroke-width="0.125"/>
<path d="M19 1.97031V2.94344L10.5118 10.2559C10.239 10.4922 9.7609 10.4922 9.48809 10.2559L1 2.94344V1.97031C1 1.43316 1.43587 1 1.97312 1H18.0269C18.5641 1 19 1.43316 19 1.97031Z" fill="white" stroke="white" stroke-width="0.125"/>
</svg>
