<svg width="16" height="16" viewBox="0 0 16 16" fill="none" xmlns="http://www.w3.org/2000/svg">
<path d="M10.1736 10.7744L9.80453 11.1629C9.80453 11.1629 8.92736 12.0864 6.53309 9.56566C4.13883 7.04494 5.01598 6.12144 5.01598 6.12144L5.24838 5.87678C5.82088 5.27406 5.87484 4.30641 5.37536 3.59998L4.35366 2.15492C3.73546 1.28057 2.54089 1.16507 1.83233 1.91106L0.560567 3.24999C0.209228 3.61988 -0.0262129 4.09938 0.00234015 4.63129C0.0753838 5.99212 0.656872 8.91998 3.90162 12.3361C7.34252 15.9587 10.5711 16.1027 11.8914 15.9724C12.309 15.9312 12.6722 15.706 12.9648 15.3979L14.1158 14.1861C14.8928 13.3681 14.6737 11.9659 13.6796 11.3937L12.1316 10.5026C11.4789 10.1269 10.6837 10.2373 10.1736 10.7744Z" fill="white"/>
<path d="M8.31262 0.510319C8.36626 0.179018 8.67942 -0.0457201 9.01073 0.00791012C9.03122 0.0118398 9.09726 0.0241717 9.13178 0.0318691C9.20097 0.0472719 9.29739 0.0709716 9.41763 0.105999C9.65811 0.176036 9.99404 0.291423 10.3972 0.476265C11.2045 0.846353 12.2787 1.49374 13.3934 2.60848C14.5082 3.72321 15.1555 4.79744 15.5256 5.60468C15.7105 6.00787 15.8259 6.3438 15.8959 6.58426C15.9309 6.70451 15.9546 6.80096 15.97 6.87009C15.9777 6.90466 15.9834 6.93242 15.9873 6.95293L15.992 6.97821C16.0455 7.30947 15.8229 7.63568 15.4916 7.68932C15.1612 7.74279 14.85 7.51909 14.7951 7.1894C14.7934 7.18048 14.7887 7.15674 14.7837 7.1343C14.7737 7.08941 14.7564 7.01826 14.729 6.92414C14.6742 6.73589 14.579 6.45609 14.4208 6.11119C14.105 5.42223 13.537 4.47085 12.534 3.46787C11.5311 2.4649 10.5797 1.89693 9.89073 1.58107C9.54581 1.42294 9.26603 1.32771 9.07773 1.27287C8.98366 1.24546 8.86537 1.21831 8.82048 1.20832C8.49071 1.15336 8.25914 0.840673 8.31262 0.510319Z" fill="white"/>
<path fill-rule="evenodd" clip-rule="evenodd" d="M8.49594 3.30528C8.58814 2.98258 8.92448 2.79572 9.2472 2.88792L9.08029 3.47223C9.2472 2.88792 9.2472 2.88792 9.2472 2.88792L9.24841 2.88826L9.24963 2.88861L9.2523 2.8894L9.25862 2.89128L9.27467 2.89627C9.28682 2.90018 9.30213 2.90526 9.32028 2.91172C9.35666 2.92464 9.40479 2.943 9.46378 2.96828C9.58183 3.01887 9.74307 3.09699 9.94125 3.21424C10.3378 3.44896 10.8792 3.83883 11.5152 4.47485C12.1513 5.11087 12.5411 5.65226 12.7758 6.04886C12.8931 6.24697 12.9712 6.40826 13.0218 6.5263C13.0471 6.58529 13.0655 6.63338 13.0784 6.66977C13.0848 6.68796 13.0899 6.70322 13.0938 6.71544L13.0988 6.73147L13.1006 6.73775L13.1015 6.74045L13.1018 6.7417C13.1018 6.7417 13.1022 6.74286 12.5178 6.90981L13.1022 6.74286C13.1944 7.06556 13.0075 7.40189 12.6848 7.49409C12.3649 7.58549 12.0314 7.40262 11.9359 7.08494L11.9329 7.07621C11.9286 7.06403 11.9197 7.04006 11.9047 7.00506C11.8747 6.9351 11.8204 6.82067 11.73 6.66787C11.5493 6.36262 11.223 5.90138 10.6558 5.33424C10.0887 4.76711 9.62745 4.44083 9.32223 4.26017C9.16941 4.16973 9.05501 4.11536 8.985 4.08538C8.95 4.07038 8.92602 4.06144 8.91386 4.05712L8.90511 4.05413C8.5875 3.95862 8.40454 3.62524 8.49594 3.30528Z" fill="white"/>
</svg>
