<svg xmlns="http://www.w3.org/2000/svg" version="1.1" xmlns:xlink="http://www.w3.org/1999/xlink" xmlns:svgjs="http://svgjs.dev/svgjs" width="120" height="120"><svg width="120" height="120" viewBox="0 0 120 120" fill="none" xmlns="http://www.w3.org/2000/svg">
<path d="M39.789 57.6495L9 5C13.2837 5 19.263 8.12991 21.7172 9.69486L47.821 46.9184C50.4983 49.8695 54.068 51.5015 55.5182 51.9486L111.072 61.003L108.73 62.3444H47.1516C43.6711 62.3444 40.793 59.2145 39.789 57.6495Z" fill="#EE1D23"></path>
<path d="M55.5182 69.7221H104.714C104.178 70.7952 99.1361 74.4169 96.6819 76.0937L60.5382 78.7764C59.1995 78.7764 56.6338 81.4592 55.5182 82.8006L28.4105 116V113.317L49.829 76.0937C51.9708 71.5329 54.5142 69.9456 55.5182 69.7221Z" fill="#EE1D23"></path>
<path d="M40.793 72.4048L25.0639 46.9184L34.0998 69.7221C35.4384 72.4048 35.1038 75.3112 34.7691 76.429L25.7332 95.8792C24.93 98.5619 25.6216 102.363 26.0678 103.927L39.789 80.4532C41.9309 76.6973 41.3508 73.5227 40.793 72.4048Z" fill="#EE1D23"></path>
</svg><style>@media (prefers-color-scheme: light) { :root { filter: none; } }
@media (prefers-color-scheme: dark) { :root { filter: none; } }
</style></svg>